<?xml version="1.0" encoding="UTF-8" standalone="no"?>
<!-- Created with Inkscape (http://www.inkscape.org/) -->

<svg
   xmlns:dc="http://purl.org/dc/elements/1.1/"
   xmlns:cc="http://creativecommons.org/ns#"
   xmlns:rdf="http://www.w3.org/1999/02/22-rdf-syntax-ns#"
   xmlns:svg="http://www.w3.org/2000/svg"
   xmlns="http://www.w3.org/2000/svg"
   xmlns:sodipodi="http://sodipodi.sourceforge.net/DTD/sodipodi-0.dtd"
   xmlns:inkscape="http://www.inkscape.org/namespaces/inkscape"
   id="svg2"
   version="1.1"
   inkscape:version="0.91 r13725"
   xml:space="preserve"
   width="180"
   height="37.5"
   viewBox="0 0 180 37.5"
   sodipodi:docname="sm_logo.ai.svg"><metadata
     id="metadata8"><rdf:RDF><cc:Work
         rdf:about=""><dc:format>image/svg+xml</dc:format><dc:type
           rdf:resource="http://purl.org/dc/dcmitype/StillImage" /><dc:title></dc:title></cc:Work></rdf:RDF></metadata><defs
     id="defs6"><clipPath
       clipPathUnits="userSpaceOnUse"
       id="clipPath16"><path
         d="M 0,30 144,30 144,0 0,0 0,30 Z"
         id="path18"
         inkscape:connector-curvature="0" /></clipPath></defs><sodipodi:namedview
     pagecolor="#ffffff"
     bordercolor="#666666"
     borderopacity="1"
     objecttolerance="10"
     gridtolerance="10"
     guidetolerance="10"
     inkscape:pageopacity="0"
     inkscape:pageshadow="2"
     inkscape:window-width="640"
     inkscape:window-height="480"
     id="namedview4"
     showgrid="false"
     inkscape:zoom="1.7666667"
     inkscape:cx="90"
     inkscape:cy="18.75"
     inkscape:window-x="65"
     inkscape:window-y="24"
     inkscape:window-maximized="0"
     inkscape:current-layer="g12" /><g
     id="g10"
     inkscape:groupmode="layer"
     inkscape:label="sm_logo"
     transform="matrix(1.25,0,0,-1.25,0,37.5)"><g
       id="g12"><g
         id="g14"
         clip-path="url(#clipPath16)"><g
           id="g20"
           transform="translate(12.9929,10.1724)"><path
             d="m 0,0 c 0.061,-0.427 0.18,-0.747 0.356,-0.958 0.325,-0.386 0.879,-0.578 1.666,-0.578 0.471,0 0.854,0.051 1.147,0.152 0.558,0.195 0.836,0.557 0.836,1.086 0,0.309 -0.136,0.548 -0.409,0.717 C 3.322,0.584 2.89,0.73 2.297,0.857 L 1.284,1.079 c -0.996,0.22 -1.68,0.459 -2.053,0.717 -0.629,0.432 -0.945,1.107 -0.945,2.025 0,0.838 0.309,1.534 0.925,2.089 0.617,0.554 1.523,0.831 2.719,0.831 0.998,0 1.849,-0.261 2.553,-0.783 0.705,-0.523 1.075,-1.282 1.11,-2.276 l -1.879,0 C 3.679,4.245 3.427,4.645 2.959,4.881 2.646,5.038 2.258,5.116 1.794,5.116 1.277,5.116 0.865,5.015 0.558,4.812 0.249,4.608 0.095,4.325 0.095,3.961 0.095,3.626 0.247,3.377 0.551,3.212 0.746,3.102 1.16,2.973 1.794,2.825 L 3.436,2.438 c 0.719,-0.17 1.258,-0.396 1.618,-0.68 0.557,-0.44 0.837,-1.077 0.837,-1.91 0,-0.855 -0.33,-1.566 -0.992,-2.13 -0.661,-0.566 -1.594,-0.848 -2.8,-0.848 -1.232,0 -2.201,0.278 -2.907,0.835 C -1.514,-1.738 -1.866,-0.973 -1.866,0 L 0,0 Z"
             style="fill:#5e5e5e;fill-opacity:1;fill-rule:nonzero;stroke:none"
             id="path22"
             inkscape:connector-curvature="0" /></g><g
           id="g24"
           transform="translate(28.5271,16.6406)"><path
             d="m 0,0 2.813,0 0,-9.357 -1.822,0 0,6.329 c 0,0.182 0.002,0.437 0.007,0.765 0.004,0.328 0.006,0.581 0.006,0.759 l -1.774,-7.853 -1.899,0 -1.761,7.853 c 0,-0.178 0.002,-0.431 0.006,-0.759 0.005,-0.328 0.007,-0.583 0.007,-0.765 l 0,-6.329 -1.821,0 0,9.357 2.844,0 L -1.69,-7.357 0,0 Z"
             style="fill:#5e5e5e;fill-opacity:1;fill-rule:nonzero;stroke:none"
             id="path26"
             inkscape:connector-curvature="0" /></g><g
           id="g28"
           transform="translate(37.7625,10.8198)"><path
             d="M 0,0 2.396,0 1.214,3.682 0,0 Z m 0.129,5.821 2.212,0 3.31,-9.357 -2.12,0 -0.617,1.924 -3.446,0 -0.634,-1.924 -2.045,0 3.34,9.357 z"
             style="fill:#5e5e5e;fill-opacity:1;fill-rule:nonzero;stroke:none"
             id="path30"
             inkscape:connector-curvature="0" /></g><g
           id="g32"
           transform="translate(48.0779,10.1724)"><path
             d="m 0,0 c 0.061,-0.427 0.18,-0.747 0.356,-0.958 0.325,-0.386 0.879,-0.578 1.666,-0.578 0.471,0 0.854,0.051 1.147,0.152 0.558,0.195 0.836,0.557 0.836,1.086 0,0.309 -0.136,0.548 -0.409,0.717 C 3.322,0.584 2.89,0.73 2.297,0.857 L 1.284,1.079 c -0.996,0.22 -1.68,0.459 -2.053,0.717 -0.629,0.432 -0.945,1.107 -0.945,2.025 0,0.838 0.309,1.534 0.925,2.089 0.617,0.554 1.523,0.831 2.719,0.831 0.998,0 1.849,-0.261 2.553,-0.783 0.705,-0.523 1.075,-1.282 1.11,-2.276 l -1.879,0 C 3.679,4.245 3.427,4.645 2.959,4.881 2.646,5.038 2.258,5.116 1.794,5.116 1.277,5.116 0.865,5.015 0.558,4.812 0.249,4.608 0.095,4.325 0.095,3.961 0.095,3.626 0.247,3.377 0.551,3.212 0.746,3.102 1.16,2.973 1.794,2.825 L 3.436,2.438 c 0.719,-0.17 1.258,-0.396 1.618,-0.68 0.557,-0.44 0.837,-1.077 0.837,-1.91 0,-0.855 -0.33,-1.566 -0.992,-2.13 -0.661,-0.566 -1.594,-0.848 -2.8,-0.848 -1.232,0 -2.201,0.278 -2.907,0.835 C -1.514,-1.738 -1.866,-0.973 -1.866,0 L 0,0 Z"
             style="fill:#5e5e5e;fill-opacity:1;fill-rule:nonzero;stroke:none"
             id="path34"
             inkscape:connector-curvature="0" /></g><g
           id="g36"
           transform="translate(57.3923,7.2837)"><path
             d="m 0,0 0,9.357 1.942,0 0,-3.567 3.637,0 0,3.567 1.943,0 0,-9.357 -1.943,0 0,4.177 -3.637,0 L 1.942,0 0,0 Z"
             style="fill:#5e5e5e;fill-opacity:1;fill-rule:nonzero;stroke:none"
             id="path38"
             inkscape:connector-curvature="0" /></g><g
           id="g40"
           transform="translate(102.2532,16.6406)"><path
             d="m 0,0 2.813,0 0,-9.357 -1.822,0 0,6.329 c 0,0.182 0.002,0.437 0.007,0.765 0.004,0.328 0.006,0.581 0.006,0.759 l -1.774,-7.853 -1.899,0 -1.761,7.853 c 0,-0.178 0.002,-0.431 0.006,-0.759 0.005,-0.328 0.007,-0.583 0.007,-0.765 l 0,-6.329 -1.821,0 0,9.357 2.844,0 L -1.69,-7.357 0,0 Z"
             style="fill:#5e5e5e;fill-opacity:1;fill-rule:nonzero;stroke:none"
             id="path42"
             inkscape:connector-curvature="0" /></g><path
           d="m 110.609,7.284 -1.941,0 0,9.357 1.941,0 0,-9.357 z"
           style="fill:#5e5e5e;fill-opacity:1;fill-rule:nonzero;stroke:none"
           id="path44"
           inkscape:connector-curvature="0" /><g
           id="g46"
           transform="translate(114.3567,16.6406)"><path
             d="m 0,0 2.049,0 3.715,-6.524 0,6.524 1.821,0 0,-9.357 -1.955,0 -3.809,6.639 0,-6.639 L 0,-9.357 0,0 Z"
             style="fill:#5e5e5e;fill-opacity:1;fill-rule:nonzero;stroke:none"
             id="path48"
             inkscape:connector-curvature="0" /></g><g
           id="g50"
           transform="translate(132.6448,14.9839)"><path
             d="m 0,0 -4.951,0 0,-1.987 4.545,0 0,-1.625 -4.545,0 0,-2.406 5.18,0 0,-1.682 -7.091,0 0,9.357 L 0,1.657 0,0 Z"
             style="fill:#5e5e5e;fill-opacity:1;fill-rule:nonzero;stroke:none"
             id="path52"
             inkscape:connector-curvature="0" /></g><g
           id="g54"
           transform="translate(87.7053,7.6821)"><path
             d="M 0,0 1.616,0 -7.192,13.396 -8.001,12.167 0,0 Z m 3.655,-1.1 -4.249,0 -8.723,13.267 2.125,3.23 L 3.655,-1.1 Z"
             style="fill:#5e5e5e;fill-opacity:1;fill-rule:nonzero;stroke:none"
             id="path56"
             inkscape:connector-curvature="0" /></g><g
           id="g58"
           transform="translate(71.7043,7.6821)"><path
             d="M 0,0 14.191,0 7.096,10.791 0,0 Z M 16.23,-1.1 -2.04,-1.1 7.096,12.792 16.23,-1.1 Z"
             style="fill:#5e5e5e;fill-opacity:1;fill-rule:nonzero;stroke:none"
             id="path60"
             inkscape:connector-curvature="0" /></g><g
           id="g62"
           transform="translate(71.7043,7.6821)"><path
             d="M 0,0 14.191,0 7.096,10.791 0,0 Z M 16.001,0 17.617,0 8.809,13.396 8,12.167 16.001,0 Z m 4.42,-1.512 -23.225,0 11.613,17.659 11.612,-17.659 z"
             style="fill:#5e5e5e;fill-opacity:1;fill-rule:nonzero;stroke:none"
             id="path64"
             inkscape:connector-curvature="0" /></g></g></g></g></svg>